<svg xmlns="http://www.w3.org/2000/svg" viewBox="0 0 403.45 170.08"><defs><style>.cls-1{fill:#fff;}.cls-2{fill:#f8e243;}</style></defs><title>logo-arias</title><g id="Capa_2" data-name="Capa 2"><g id="Capa_1-2" data-name="Capa 1"><path class="cls-1" d="M9,164.59c-.71,1.62-1.44,3.22-2.17,4.84H0l14.45-32.37,14.48,32.37H22.05l-2.13-4.82H9.07ZM17.31,159l-2.81-6.62L11.68,159Z"/><path class="cls-1" d="M31.34,137.62H41.7A11.62,11.62,0,0,1,50,140.88a9.34,9.34,0,0,1,3.08,7.31v1a9.64,9.64,0,0,1-2,6,8.09,8.09,0,0,1-4.56,3.24l7.19,11.08H45.89l-8.14-12.45v12.45H31.36Zm11,15.35a3.52,3.52,0,0,0,2.92-1.26,4.37,4.37,0,0,0,1.27-3.32,4,4,0,0,0-1.27-3.13A5.72,5.72,0,0,0,41.3,144H37.73v9Z"/><rect class="cls-1" x="56.64" y="137.66" width="6.38" height="31.85"/><path class="cls-1" d="M74.36,164.59c-.71,1.62-1.44,3.22-2.17,4.84H65.33l14.45-32.37,14.49,32.37H87.39c-.72-1.6-1.42-3.22-2.14-4.82H74.41ZM82.64,159l-2.8-6.62L77,159Z"/><path class="cls-1" d="M106.14,163.19a3.24,3.24,0,0,0,3.22-3.22,2.48,2.48,0,0,0-1.62-2.63c-2.29-.85-1.74-.65-4-1.42a12.74,12.74,0,0,1-6-4.41,7.25,7.25,0,0,1-1.3-4.41,9.68,9.68,0,0,1,19.35,0H109.4a3.21,3.21,0,0,0-6.42,0,2.9,2.9,0,0,0,1.38,2.61c1.9,1.23,1.68,1,4,1.66a12.29,12.29,0,0,1,6.18,4.19,7,7,0,0,1,1.35,4.43,9.68,9.68,0,0,1-19.35,0h6.44a3.22,3.22,0,0,0,3.22,3.22Z"/><path class="cls-1" d="M151.39,170.08l-3.81-3.89A18,18,0,0,1,145,168.1a17.2,17.2,0,0,1-2.33,1.15,10.05,10.05,0,0,1-1.92.57c-.56.09-1,.15-1.37.18a9.3,9.3,0,0,1-3.28-.41,8.42,8.42,0,0,1-2.75-1.45,8.34,8.34,0,0,1-2-2.33,8,8,0,0,1-1-3,7.13,7.13,0,0,1,.67-4.25,11.09,11.09,0,0,1,2.77-3.36c.3-.25.68-.54,1.16-.87s.86-.62,1.19-.83a10.91,10.91,0,0,1-2-3.56,8.1,8.1,0,0,1-.35-3.81,7.15,7.15,0,0,1,1.08-3.08,7.67,7.67,0,0,1,2.24-2.3,8.23,8.23,0,0,1,3.13-1.24,7.85,7.85,0,0,1,3.38.14,7.8,7.8,0,0,1,5,4.25,7.07,7.07,0,0,1,.68,3.22,7.88,7.88,0,0,1-.81,3.26,7,7,0,0,1-1.84,2.29,20.22,20.22,0,0,1-2.69,1.88l3.56,3.68c1-1.37,1.7-2.48,2.17-3.32s.7-1.27.7-1.29l4.9,2.39-.87,1.57a42.91,42.91,0,0,1-2.53,3.89c-.11.13-.2.26-.28.36a4,4,0,0,0-.24.37l4.33,4.61ZM139,157.21a11.88,11.88,0,0,0-1.9,1.29,4.78,4.78,0,0,0-.43.41,3.7,3.7,0,0,0-.5.73,4.44,4.44,0,0,0-.39,1.07,3.84,3.84,0,0,0,0,1.44,2.87,2.87,0,0,0,1.07,1.94,3.79,3.79,0,0,0,2.28.89,5.26,5.26,0,0,0,1.77-.2,7,7,0,0,0,1.41-.61,7.46,7.46,0,0,0,1.11-.77,9.6,9.6,0,0,0,.85-.77Zm-.12-10.73a4.82,4.82,0,0,0,.4,2.41,6.93,6.93,0,0,0,1.3,2.05c.38-.22.78-.48,1.2-.77a10.29,10.29,0,0,0,1.07-.89,4.27,4.27,0,0,0,1.25-3,2.1,2.1,0,0,0-.73-1.68,2.68,2.68,0,0,0-1.67-.67,2.86,2.86,0,0,0-1.81.57,2.76,2.76,0,0,0-1,2"/><path class="cls-1" d="M177.18,164.59c-.71,1.62-1.45,3.22-2.18,4.84h-6.85l14.44-32.37,14.48,32.37H190.2c-.71-1.6-1.42-3.22-2.14-4.82H177.22Zm8.27-5.61-2.8-6.62L179.82,159Z"/><path class="cls-1" d="M209,163.19a3.24,3.24,0,0,0,3.21-3.22,2.48,2.48,0,0,0-1.62-2.63c-2.29-.85-1.74-.65-4-1.42a12.69,12.69,0,0,1-6-4.41,7.25,7.25,0,0,1-1.3-4.41,9.68,9.68,0,0,1,19.35,0h-6.43a3.21,3.21,0,0,0-6.42,0,2.87,2.87,0,0,0,1.39,2.61c1.89,1.23,1.68,1,3.94,1.66a12.28,12.28,0,0,1,6.19,4.19,7,7,0,0,1,1.35,4.43,9.68,9.68,0,0,1-19.35,0h6.44a3.22,3.22,0,0,0,3.22,3.22Z"/><path class="cls-1" d="M248.26,142.24a16,16,0,1,1-11.38-4.74,15.53,15.53,0,0,1,11.38,4.74m-18.2,4.53A9.64,9.64,0,1,0,243.7,160.4a9.64,9.64,0,1,0-13.64-13.63"/><path class="cls-1" d="M270.61,137.58a15.48,15.48,0,0,1,6.25,1.26,17.15,17.15,0,0,1,5.15,3.44l-4.54,4.55a9.36,9.36,0,0,0-6.82-2.85,9.66,9.66,0,1,0,6.84,16.46L282,165a16.77,16.77,0,0,1-5.16,3.46,16.11,16.11,0,0,1-22.33-14.82,15.6,15.6,0,0,1,4.73-11.39,15.44,15.44,0,0,1,11.36-4.74Z"/><rect class="cls-1" x="284.39" y="137.66" width="6.38" height="31.85"/><path class="cls-1" d="M302.11,164.59c-.71,1.62-1.44,3.22-2.17,4.84h-6.86l14.45-32.37L322,169.43h-6.87c-.72-1.6-1.43-3.22-2.14-4.82H302.15Zm8.28-5.61-2.81-6.62L304.76,159Z"/><path class="cls-1" d="M332.29,137.72a16.21,16.21,0,0,1,11.62,4.68c5.69,5.69,5.69,16.78,0,22.45a16.27,16.27,0,0,1-11.62,4.66h-7.87V137.73h7.87Zm0,25.41a9.36,9.36,0,0,0,6.88-2.59,10.56,10.56,0,0,0,0-13.87,9.35,9.35,0,0,0-6.91-2.61h-1.46v19.07h1.52Z"/><path class="cls-1" d="M377.23,142.24a16,16,0,1,1-11.39-4.74,15.53,15.53,0,0,1,11.39,4.74M359,146.77a9.64,9.64,0,1,0,13.64,13.63A9.64,9.64,0,1,0,359,146.77"/><path class="cls-1" d="M393.75,163.19A3.24,3.24,0,0,0,397,160a2.48,2.48,0,0,0-1.62-2.63c-2.29-.85-1.74-.65-4-1.42a12.69,12.69,0,0,1-6-4.41,7.25,7.25,0,0,1-1.3-4.41,9.67,9.67,0,0,1,19.34,0H397a3.22,3.22,0,0,0-6.43,0,2.89,2.89,0,0,0,1.39,2.61c1.9,1.23,1.68,1,3.95,1.66a12.32,12.32,0,0,1,6.19,4.19,7.1,7.1,0,0,1,1.34,4.43,9.68,9.68,0,0,1-19.35,0h6.45a3.22,3.22,0,0,0,3.22,3.22Z"/><polygon class="cls-2" points="202.1 0 145.16 127.93 160.75 127.93 172.44 102 205.84 102 199.66 87.33 179.04 87.33 202.08 36.22 243.29 127.93 258.88 127.93 202.1 0"/><polygon class="cls-1" points="202.04 40.95 182.05 85.39 197.67 85.39 202.1 75.55 225.55 127.93 241.14 127.93 202.04 40.95"/><polygon class="cls-1" points="173.69 103.95 162.9 127.93 178.49 127.93 182.55 118.62 199.62 118.62 205.81 103.95 173.69 103.95"/></g></g></svg>